HIERARCHY
ROOT RootJoint
{
    OFFSET   0.000000   0.000000   0.000000
    CHANNELS 6 Xposition Yposition Zposition Xrotation Yrotation Zrotation
    JOINT pelvis_lowerback
    {
        OFFSET   0.000000   0.093605   0.000000
        CHANNELS 3 Xrotation Yrotation Zrotation
        JOINT lowerback_torso
        {
            OFFSET   0.000000   0.100000   0.000000
            CHANNELS 3 Xrotation Yrotation Zrotation
            JOINT torso_head
            {
                OFFSET   0.000000   0.282350   0.000000
                CHANNELS 3 Xrotation Yrotation Zrotation
                End Site
                {
                    OFFSET   0.000000   0.192650   0.000000
                }
            }
            JOINT rTorso_Clavicle
            {
                OFFSET  -0.001000   0.157500   0.000000
                CHANNELS 3 Xrotation Yrotation Zrotation
                JOINT rShoulder
                {
                    OFFSET  -0.117647   0.000000   0.000000
                    CHANNELS 3 Xrotation Yrotation Zrotation
                    JOINT rElbow
                    {
                        OFFSET  -0.245000   0.000000   0.000000
                        CHANNELS 3 Xrotation Yrotation Zrotation
                        JOINT rWrist
                        {
                            OFFSET  -0.240000   0.000000   0.000000
                            CHANNELS 3 Xrotation Yrotation Zrotation
                            End Site
                            {
                                OFFSET  -0.116353  -0.002500   0.000000
                            }
                        }
                    }
                }
            }
            JOINT lTorso_Clavicle
            {
                OFFSET   0.001000   0.157500   0.000000
                CHANNELS 3 Xrotation Yrotation Zrotation
                JOINT lShoulder
                {
                    OFFSET   0.117647   0.000000   0.000000
                    CHANNELS 3 Xrotation Yrotation Zrotation
                    JOINT lElbow
                    {
                        OFFSET   0.245000   0.000000   0.000000
                        CHANNELS 3 Xrotation Yrotation Zrotation
                        JOINT lWrist
                        {
                            OFFSET   0.240000   0.000000   0.000000
                            CHANNELS 3 Xrotation Yrotation Zrotation
                            End Site
                            {
                                OFFSET   0.116353  -0.002500   0.000000
                            }
                        }
                    }
                }
            }
        }
    }
    JOINT rHip
    {
        OFFSET  -0.100000  -0.051395   0.000000
        CHANNELS 3 Xrotation Yrotation Zrotation
        JOINT rKnee
        {
            OFFSET   0.000000  -0.410000   0.000000
            CHANNELS 3 Xrotation Yrotation Zrotation
            JOINT rAnkle
            {
                OFFSET   0.000000  -0.390000   0.000000
                CHANNELS 3 Xrotation Yrotation Zrotation
                JOINT rToeJoint
                {
                    OFFSET   0.000000  -0.050000   0.130000
                    CHANNELS 3 Xrotation Yrotation Zrotation
                    End Site
                    {
                        OFFSET  -0.010000   0.002000   0.060000
                    }
                }
            }
        }
    }
    JOINT lHip
    {
        OFFSET   0.100000  -0.051395   0.000000
        CHANNELS 3 Xrotation Yrotation Zrotation
        JOINT lKnee
        {
            OFFSET   0.000000  -0.410000   0.000000
            CHANNELS 3 Xrotation Yrotation Zrotation
            JOINT lAnkle
            {
                OFFSET   0.000000  -0.390000   0.000000
                CHANNELS 3 Xrotation Yrotation Zrotation
                JOINT lToeJoint
                {
                    OFFSET   0.000000  -0.050000   0.130000
                    CHANNELS 3 Xrotation Yrotation Zrotation
                    End Site
                    {
                        OFFSET   0.010000   0.002000   0.060000
                    }
                }
            }
        }
    }
}
MOTION
Frames: 17
Frame Time:   0.008333
 -2.376719   0.925631   3.975860   0.000000   0.000000   0.000000   0.000000   0.000000   0.000000   0.000000   0.000000   0.000000   0.000000   0.000000   0.000000   0.000000   0.000000   0.000000   0.000000   0.000000   0.000000   0.000000   0.000000   0.000000   0.000000   0.000000   0.000000   0.000000   0.000000   0.000000   0.000000   0.000000   0.000000   0.000000   0.000000   0.000000   0.000000   0.000000   0.000000   0.000000   0.000000   0.000000   0.000000   0.000000   0.000000   0.000000   0.000000   0.000000   0.000000   0.000000   0.000000   0.000000   0.000000   0.000000   0.000000   0.000000   0.000000   0.000000   0.000000   0.000000   0.000000   0.000000   0.000000
 -2.376719   0.925628   3.974763   0.488934  -0.020571   0.141014  -0.515330   0.029299  -0.234274  -0.074627  -0.207466  -0.025672  -0.062385   0.055443   0.010902  -0.031763  -0.192063   0.124402  -0.669160   0.459563   1.935822   0.046130   2.755576   0.018171  -0.127355  -1.738909  -2.824428  -0.332381   0.116880   0.177995  -0.934806  -0.100692  -1.476804   0.023855  -1.958890  -0.022947  -0.163998   1.365042   2.286053  -0.989323   0.040339  -0.326386   0.834222   0.001354   0.000110  -0.367644  -0.241196   0.074233   0.100646   0.000098  -0.000197  -0.945078  -0.140804  -0.029870   1.022044  -0.001007  -0.001447  -0.776572   0.292429   0.136163   0.118738  -0.000255   0.000134
 -2.376668   0.925632   3.973307   0.892353  -0.076665   0.271261  -0.989524   0.054643  -0.465946  -0.163976  -0.407925  -0.029202  -0.134913   0.103046  -0.008891  -0.071212  -0.112906   0.842860  -1.337542   1.121228   4.226694   0.103763   5.490727   0.033503  -0.284975  -2.451287  -5.056034  -0.652991  -0.008329  -0.088142  -1.831777  -0.382801  -3.202287   0.053061  -3.910707  -0.040931  -0.377615   2.004128   4.154178  -1.972807   0.087185  -0.791016   1.658860   0.003505  -0.000125  -0.706655  -0.470654   0.140400   0.196430   0.000303  -0.000368  -1.803692  -0.278053   0.050516   2.064109  -0.002793  -0.002887  -1.502148   0.567468   0.268626   0.194563  -0.000430   0.000159
 -2.376520   0.925348   3.971623   1.232360  -0.144088   0.374957  -1.426764   0.074745  -0.657873  -0.252781  -0.596054   0.004834  -0.222463   0.146288  -0.040460  -0.113841   0.148836   1.926527  -2.001956   1.858766   6.682142   0.158527   8.106177   0.044958  -0.427039  -2.674800  -6.576051  -0.953305  -0.305055  -0.658900  -2.686026  -0.760088  -5.057621   0.080435  -5.790883  -0.053299  -0.581327   2.235965   5.477632  -2.930484   0.140213  -1.355073   2.417395   0.005873  -0.000468  -1.023280  -0.687029   0.199615   0.279964   0.000535  -0.000482  -2.573219  -0.410708   0.231913   3.054450  -0.004814  -0.003922  -2.179659   0.823754   0.396393   0.259236  -0.000576   0.000159
 -2.376266   0.924563   3.969787   1.525947  -0.210110   0.454672  -1.825218   0.087389  -0.803676  -0.335014  -0.776631   0.076891  -0.319616   0.186445  -0.074706  -0.160721   0.517984   3.221744  -2.660337   2.611203   9.195145   0.204136  10.582837   0.052722  -0.551495  -2.653958  -7.555952  -1.236563  -0.705282  -1.417393  -3.499982  -1.178613  -6.963928   0.102629  -7.582439  -0.060713  -0.767739   2.234255   6.375500  -3.862660   0.201223  -1.998987   3.109263   0.008129  -0.000795  -1.319662  -0.890816   0.252612   0.350835   0.000745  -0.000541  -3.268161  -0.539415   0.492081   3.985683  -0.006758  -0.004503  -2.812906   1.062477   0.519169   0.313934  -0.000681   0.000151
 -2.375917   0.923130   3.967862   1.783775  -0.269928   0.514649  -2.184053   0.091576  -0.904669  -0.405361  -0.952340   0.183596  -0.421092   0.223949  -0.107881  -0.212514   0.945419   4.625988  -3.309447   3.343885  11.695778   0.238344  12.915315   0.057313  -0.662858  -2.507982  -8.159160  -1.505595  -1.162891  -2.277361  -4.275219  -1.605517  -8.863245   0.118450  -9.278111  -0.064043  -0.937711   2.096484   6.976203  -4.768286   0.271438  -2.705740   3.740104   0.010088  -0.001065  -1.597063  -1.082533   0.300067   0.411413   0.000912  -0.000559  -3.898410  -0.664535   0.811797   4.859047  -0.008456  -0.004699  -3.404824   1.284774   0.636779   0.360549  -0.000747   0.000140
 -2.375855   0.922511   3.966039   2.016303  -0.498620   0.457624  -2.524231   0.154235  -0.923633  -0.463070  -1.071508   0.361987  -0.522638   0.260934  -0.133785  -0.265854   1.413556   6.183663  -3.943761   4.044036  14.193452   0.263692  15.106109   0.059938  -0.761524  -2.285490  -8.503835  -1.756802  -1.617105  -3.266012  -5.008705  -1.999437 -10.750920   0.129950 -10.869235  -0.064325  -1.094511   1.896774   7.410269  -5.664568   0.140961  -2.693170   4.653794   0.008378  -0.004117  -1.519279  -1.424073   0.646409   0.455972   0.000617  -0.000732  -4.423595  -0.778929   1.305886   5.667361  -0.010012  -0.005724  -3.953954   1.493914   0.750427   0.433792  -0.000945   0.000042
 -2.375303   0.921765   3.963643   2.178136  -0.710330   0.414595  -2.488567   0.138257  -0.847957  -0.644116  -1.185430   0.523278  -0.730584   0.248494  -0.094236  -0.359765   1.787271   7.349019  -4.596694   4.860617  16.481544   0.284164  17.652781   0.061566  -0.988520  -2.411719  -8.190491  -1.995597  -2.038146  -3.874102  -6.206499  -2.337505 -12.771199   0.135094 -12.541661  -0.068318  -1.382259   1.874350   7.488809  -6.622369   0.119911  -2.708900   5.777044   0.007215  -0.006118  -1.511908  -1.593410   0.938726   0.537969   0.000337  -0.000904  -4.744656  -0.712611   1.677920   5.809681  -0.008427  -0.004686  -4.245233   1.771619   0.882389   0.653833  -0.001599   0.000343
 -2.374424   0.920944   3.960941   2.343833  -0.818893   0.373782  -2.373702   0.069416  -0.734053  -0.773318  -1.330962   0.694438  -0.922241   0.232242  -0.040343  -0.475754   2.203032   8.289950  -5.251841   5.667241  18.529961   0.288534  20.067935   0.059326  -1.176641  -2.347861  -7.937540  -2.235960  -2.523645  -4.347782  -7.348640  -2.686768 -14.609219   0.133198 -14.130183  -0.067161  -1.659924   1.750924   7.585340  -7.570063   0.111378  -2.746829   6.864381   0.006406  -0.006534  -1.504930  -1.745622   1.204660   0.616741   0.000148  -0.000939  -5.099010  -0.645643   1.961115   5.840749  -0.006810  -0.003744  -4.523157   2.030726   1.006680   0.852301  -0.001869   0.000706
 -2.373178   0.920690   3.958193   2.509994  -0.774800   0.588156  -2.217766  -0.048043  -0.798258  -0.860354  -1.512512   0.781339  -1.094099   0.215249   0.010650  -0.599667   2.628178   9.123548  -5.897588   6.431686  20.411679   0.283564  22.337413   0.054723  -1.335626  -2.185642  -7.818443  -2.478098  -3.053930  -4.732744  -8.436043  -3.039750 -16.283160   0.127595 -15.633285  -0.063244  -1.904773   1.516668   7.779236  -8.385358   0.144092  -3.076841   7.763522   0.005937  -0.005343  -1.673249  -1.860886   1.427816   0.373434   0.000349  -0.000505  -5.561773  -0.488763   1.680869   6.022599  -0.005331  -0.002685  -4.562440   2.335938   0.996253   1.032690  -0.001352   0.001350
 -2.372001   0.920462   3.955478   2.692199  -0.764438   0.802728  -2.044300  -0.135514  -0.839408  -0.925165  -1.672265   0.862970  -1.248010   0.200611   0.057018  -0.736568   3.064391   9.816784  -6.533603   7.159786  22.130383   0.271542  24.469468   0.049270  -1.474556  -1.960957  -7.777229  -2.716496  -3.588806  -5.011369  -9.467513  -3.375528 -17.806235   0.119168 -17.049653  -0.057702  -2.125736   1.218110   8.031870  -9.159077   0.186384  -3.396918   8.546208   0.005413  -0.004565  -1.838928  -1.979776   1.610784   0.408646   0.000255  -0.000449  -6.003165  -0.387584   1.391619   6.160097  -0.004170  -0.002030  -4.658872   2.572342   1.067472   1.198259  -0.001047   0.001566
 -2.370922   0.920240   3.952842   2.889420  -0.774724   1.010513  -1.859021  -0.209778  -0.864270  -0.977016  -1.814411   0.948305  -1.386953   0.187152   0.101576  -0.885190   3.498673  10.401372  -7.157711   7.846593  23.702243   0.255259  26.469678   0.043774  -1.596557  -1.691336  -7.818828  -2.950362  -4.112688  -5.208309 -10.444989  -3.687643 -19.190624   0.109308 -18.380519  -0.051411  -2.325939   0.880703   8.354586  -9.901823   0.231840  -3.699953   9.242927   0.004873  -0.004029  -1.998967  -2.090957   1.778454   0.498086   0.000149  -0.000484  -6.432108  -0.298337   1.115288   6.263254  -0.003269  -0.001570  -4.760615   2.789720   1.138061   1.345108  -0.000808   0.001613
 -2.369950   0.920024   3.950329   3.096173  -0.795766   1.209537  -1.667324  -0.276424  -0.874945  -1.018702  -1.943925   1.037365  -1.512363   0.174504   0.144412  -1.040435   3.919664  10.898440  -7.765637   8.487642  25.144921   0.236679  28.343409   0.038604  -1.705337  -1.395208  -7.928904  -3.177951  -4.617149  -5.341483 -11.369611  -3.973651 -20.452646   0.098977 -19.628743  -0.044952  -2.508390   0.522138   8.735568 -10.611302   0.278389  -3.984090   9.868866   0.004339  -0.003616  -2.154488  -2.195412   1.934093   0.580247   0.000070  -0.000504  -6.846583  -0.215132   0.855353   6.340666  -0.002570  -0.001230  -4.863560   2.992152   1.204884   1.478794  -0.000621   0.001578
 -2.369168   0.919879   3.948235   3.164850  -0.819538   1.293960  -1.356484  -0.326400  -0.805669  -1.055946  -2.024769   1.199628  -1.613684   0.142166   0.180614  -1.175017   4.292885  11.053072  -8.311497   9.173668  26.254280   0.214290  30.313206   0.031766  -1.924285  -1.334940  -7.586893  -3.410548  -5.122285  -5.330561 -12.459270  -4.249848 -21.598485   0.086856 -20.903259  -0.041652  -2.795418   0.335744   8.903682 -11.014251   0.275906  -4.129837  10.257781   0.003642  -0.003186  -2.417257  -2.255160   1.982365   0.657131   0.000057  -0.000489  -7.033632  -0.069402   0.734168   6.252650  -0.002095  -0.001069  -4.558942   3.216343   1.274404   1.606204  -0.000518   0.001635
 -2.368564   0.919767   3.946432   3.245645  -0.851829   1.357459  -1.089040  -0.362257  -0.731183  -1.123221  -2.092839   1.353449  -1.696050   0.112875   0.227013  -1.348059   4.659526  11.016433  -8.864135   9.840192  27.172897   0.188015  32.175325   0.026835  -2.113551  -1.176218  -7.374271  -3.650868  -5.617398  -5.204136 -13.500467  -4.520934 -22.594813   0.074152 -22.108601  -0.038677  -3.065193   0.096888   9.161912 -11.372071   0.270059  -4.240436  10.572166   0.003016  -0.002790  -2.684808  -2.311454   2.026411   0.714038   0.000041  -0.000455  -7.203819   0.069718   0.646305   6.152369  -0.001710  -0.000941  -4.280043   3.427002   1.340198   1.754359  -0.000448   0.001707
 -2.368151   0.919673   3.944934   3.335599  -0.889253   1.410895  -0.865663  -0.390165  -0.663487  -1.225313  -2.152469   1.486951  -1.769081   0.085704   0.274502  -1.546350   5.014133  10.860836  -9.414738  10.476183  27.951016   0.160909  33.925902   0.023502  -2.279189  -0.947084  -7.336475  -3.890994  -6.092166  -4.999201 -14.489715  -4.777744 -23.468109   0.061929 -23.242212  -0.036094  -3.311275  -0.184989   9.522335 -11.700202   0.262402  -4.326916  10.847572   0.002471  -0.002442  -2.941584  -2.365004   2.068227   0.762993   0.000024  -0.000418  -7.355027   0.197685   0.580541   6.043188  -0.001394  -0.000832  -4.031395   3.623394   1.402666   1.891010  -0.000399   0.001698
 -2.367934   0.919589   3.943750   3.428612  -0.927241   1.456660  -0.685080  -0.413614  -0.606943  -1.357519  -2.206429   1.598938  -1.836273   0.060286   0.320006  -1.757737   5.351464  10.629920  -9.955220  11.076581  28.621932   0.134826  35.567860   0.021321  -2.426818  -0.675566  -7.435596  -4.126038  -6.541884  -4.745502 -15.426247  -5.016889 -24.242645   0.050777 -24.305905  -0.033890  -3.536890  -0.493018   9.957973 -11.999351   0.252799  -4.392026  11.099158   0.002002  -0.002136  -3.183627  -2.415873   2.108264   0.806701   0.000008  -0.000380  -7.484727   0.314691   0.534458   5.931003  -0.001128  -0.000737  -3.808095   3.806250   1.462096   2.015642  -0.000366   0.001635
